<svg xmlns="http://www.w3.org/2000/svg" viewBox="0 0 1200 700">
  <defs>
    <linearGradient id="wall" x1="0" x2="0" y1="0" y2="1">
      <stop offset="0" stop-color="#f6efe6"/>
      <stop offset="1" stop-color="#e7d8c5"/>
    </linearGradient>
    <linearGradient id="ceiling" x1="0" x2="0" y1="0" y2="1">
      <stop offset="0" stop-color="#eadbc8"/>
      <stop offset="1" stop-color="#d8c4ab"/>
    </linearGradient>
    <linearGradient id="carpet" x1="0" x2="1" y1="0" y2="1">
      <stop offset="0" stop-color="#4f4845"/>
      <stop offset="1" stop-color="#6f6760"/>
    </linearGradient>
  </defs>
  <rect width="1200" height="700" fill="url(#wall)"/>
  <polygon points="90,85 1110,85 980,185 220,185" fill="url(#ceiling)"/>
  <rect x="500" y="165" width="200" height="225" rx="16" fill="#efe8de" stroke="#cabaa6" stroke-width="6"/>
  <rect x="545" y="215" width="110" height="135" rx="8" fill="#cfe5f7"/>
  <rect x="110" y="175" width="360" height="350" rx="18" fill="#fafafa" stroke="#d6c7b4" stroke-width="6"/>
  <rect x="730" y="175" width="360" height="350" rx="18" fill="#fafafa" stroke="#d6c7b4" stroke-width="6"/>
  <rect x="140" y="290" width="300" height="160" rx="18" fill="#1f6fb7"/>
  <rect x="760" y="290" width="300" height="160" rx="18" fill="#1f6fb7"/>
  <rect x="140" y="230" width="300" height="88" rx="18" fill="#ffffff"/>
  <rect x="760" y="230" width="300" height="88" rx="18" fill="#ffffff"/>
  <rect x="185" y="205" width="90" height="35" rx="12" fill="#d6c7b4"/>
  <rect x="815" y="205" width="90" height="35" rx="12" fill="#d6c7b4"/>
  <rect x="470" y="395" width="260" height="92" rx="14" fill="#dbcbb8"/>
  <rect x="540" y="440" width="120" height="65" rx="8" fill="#b29c84"/>
  <path d="M180 525h840l70 145H110z" fill="url(#carpet)"/>
  <path d="M210 540l70 130M320 535l70 135M430 530l70 140M540 530l60 140M650 530l60 140M760 535l70 135M870 540l70 130" stroke="#8e837b" stroke-width="8"/>
  <circle cx="600" cy="115" r="24" fill="#fff6d9" stroke="#ccb48f" stroke-width="8"/>
</svg>
